# WaveFront *.obj file (generated by CINEMA 4D)

mtllib ./FD_cloud2_AD.mtl

v -180.46623229980469 52.18264007568359 68.18550872802734
v -180.46623229980469 104.06385803222656 68.18550872802734
v -162.12345886230469 59.78046798706055 68.18550872802734
v -167.49592590332031 59.78046798706055 55.21520614624023
v -180.46623229980469 59.78046798706055 49.84273147583008
v -193.43653869628906 59.78046798706055 55.21520614624023
v -198.80900573730469 59.78046798706055 68.18550872802734
v -193.43653869628906 59.78046798706055 81.15581512451172
v -180.46623229980469 59.78046798706055 86.52828979492188
v -167.49592590332031 59.78046798706055 81.15581512451172
v -154.52561950683594 78.12324523925781 68.18550872802734
v -162.12345886230469 78.12324523925781 49.84273147583008
v -180.46623229980469 78.12324523925781 42.24490356445312
v -198.80900573730469 78.12324523925781 49.84273147583008
v -206.40684509277344 78.12324523925781 68.18550872802734
v -198.80900573730469 78.12324523925781 86.52828979492188
v -180.46623229980469 78.12324523925781 94.12612152099609
v -162.12345886230469 78.12324523925781 86.52828979492188
v -162.12345886230469 96.46602630615234 68.18550872802734
v -167.49592590332031 96.46602630615234 55.21520614624023
v -180.46623229980469 96.46602630615234 49.84273147583008
v -193.43653869628906 96.46602630615234 55.21520614624023
v -198.80900573730469 96.46602630615234 68.18550872802734
v -193.43653869628906 96.46602630615234 81.15581512451172
v -180.46623229980469 96.46602630615234 86.52828979492188
v -167.49592590332031 96.46602630615234 81.15581512451172
# 26 vertices

vn 0.86285620927811 -0.35740676522255 -0.35740676522255
vn 0.3574067056179 -0.3574067056179 -0.86285620927811
vn -0.35740673542023 -0.35740667581558 -0.86285626888275
vn -0.86285614967346 -0.35740691423416 -0.35740673542023
vn -0.86285620927811 -0.35740673542023 0.35740667581558
vn -0.35740679502487 -0.35740679502487 0.86285614967346
vn 0.35740682482719 -0.35740673542023 0.86285614967346
vn 0.86285614967346 -0.35740691423416 0.35740667581558
vn 0.86285620927811 0.35740682482719 -0.35740673542023
vn 0.35740673542023 0.35740661621094 -0.86285626888275
vn -0.35740673542023 0.35740661621094 -0.86285626888275
vn -0.86285620927811 0.3574067056179 -0.35740679502487
vn -0.86285620927811 0.35740679502487 0.35740661621094
vn -0.35740676522255 0.35740664601326 0.86285620927811
vn 0.35740679502487 0.35740673542023 0.86285620927811
vn 0.86285620927811 0.3574067056179 0.3574067056179
vn 0.00000000408257 -1 -0.00000004082569
vn 0.38268354535103 -0.9238795042038 -0.00000003017441
vn 0.27059808373451 -0.92387956380844 -0.27059796452522
vn 0 0 0
vn 0.27059817314148 0.9238795042038 -0.27059805393219
vn 0.38268369436264 0.92387944459915 -0.00000003017441
vn 0 1 -0.00000004490825
vn 0 -0.9238795042038 -0.38268348574638
vn 0 0.92387944459915 -0.38268360495567
vn -0.27059808373451 -0.92387956380844 -0.27059796452522
vn -0.27059817314148 0.9238795042038 -0.27059805393219
vn -0.38268354535103 -0.9238795042038 -0.00000003017441
vn -0.38268369436264 0.92387944459915 -0.00000003017441
vn -0.27059808373451 -0.92387956380844 0.2705979347229
vn -0.27059817314148 0.9238795042038 0.27059802412987
vn 0 -0.92387956380844 0.38268342614174
vn -0.0000000075436 0.9238795042038 0.38268354535103
vn 0.27059808373451 -0.92387956380844 0.2705979347229
vn 0.27059817314148 0.9238795042038 0.27059802412987
# 35 normals

vt 0 0.25 0
vt 0 0.5 0
vt 0.125 0.5 0
vt 0.125 0.25 0
vt 0.25 0.5 0
vt 0.25 0.25 0
vt 0.375 0.5 0
vt 0.375 0.25 0
vt 0.5 0.5 0
vt 0.5 0.25 0
vt 0.625 0.5 0
vt 0.625 0.25 0
vt 0.75 0.5 0
vt 0.75 0.25 0
vt 0.875 0.5 0
vt 0.875 0.25 0
vt 1 0.5 0
vt 1 0.25 0
vt 0 0.75 0
vt 0.125 0.75 0
vt 0.25 0.75 0
vt 0.375 0.75 0
vt 0.5 0.75 0
vt 0.625 0.75 0
vt 0.75 0.75 0
vt 0.875 0.75 0
vt 1 0.75 0
vt 0 0 0
vt 0 1 0
vt 0.125 0 0
vt 0.125 1 0
vt 0.25 0 0
vt 0.25 1 0
vt 0.375 0 0
vt 0.375 1 0
vt 0.5 0 0
vt 0.5 1 0
vt 0.625 0 0
vt 0.625 1 0
vt 0.75 0 0
vt 0.75 1 0
vt 0.875 0 0
vt 0.875 1 0
# 43 texture coordinates

o 球体.4
usemtl default
f 4/4/1 12/3/1 11/2/1 3/1/1
f 5/6/2 13/5/2 12/3/2 4/4/2
f 6/8/3 14/7/3 13/5/3 5/6/3
f 7/10/4 15/9/4 14/7/4 6/8/4
f 8/12/5 16/11/5 15/9/5 7/10/5
f 9/14/6 17/13/6 16/11/6 8/12/6
f 10/16/7 18/15/7 17/13/7 9/14/7
f 3/18/8 11/17/8 18/15/8 10/16/8
f 12/3/9 20/20/9 19/19/9 11/2/9
f 13/5/10 21/21/10 20/20/10 12/3/10
f 14/7/11 22/22/11 21/21/11 13/5/11
f 15/9/12 23/23/12 22/22/12 14/7/12
f 16/11/13 24/24/13 23/23/13 15/9/13
f 17/13/14 25/25/14 24/24/14 16/11/14
f 18/15/15 26/26/15 25/25/15 17/13/15
f 11/17/16 19/27/16 26/26/16 18/15/16
f 4/4/19 3/1/18 1/28/17
f 2/29/23 19/19/22 20/20/21
f 5/6/24 4/4/19 1/30/17
f 2/31/23 20/20/21 21/21/25
f 6/8/26 5/6/24 1/32/17
f 2/33/23 21/21/25 22/22/27
f 7/10/28 6/8/26 1/34/17
f 2/35/23 22/22/27 23/23/29
f 8/12/30 7/10/28 1/36/17
f 2/37/23 23/23/29 24/24/31
f 9/14/32 8/12/30 1/38/17
f 2/39/23 24/24/31 25/25/33
f 10/16/34 9/14/32 1/40/17
f 2/41/23 25/25/33 26/26/35
f 3/18/18 10/16/34 1/42/17
f 2/43/23 26/26/35 19/27/22

v -99.37682342529297 52.80094528198242 34.42261505126953
v -99.37682342529297 79.56098937988281 34.42261505126953
v -89.91571807861328 56.7198600769043 34.42261505126953
v -92.68681335449219 56.7198600769043 27.73260307312012
v -99.37682342529297 56.7198600769043 24.96150970458984
v -106.06683349609375 56.7198600769043 27.73260307312012
v -108.83792877197266 56.7198600769043 34.42261505126953
v -106.06683349609375 56.7198600769043 41.11262512207031
v -99.37682342529297 56.7198600769043 43.88371658325195
v -92.68681335449219 56.7198600769043 41.11262512207031
v -85.99680328369141 66.18096923828125 34.42261505126953
v -89.91571807861328 66.18096923828125 24.96150970458984
v -99.37682342529297 66.18096923828125 21.0425910949707
v -108.83792877197266 66.18096923828125 24.96150970458984
v -112.75684356689453 66.18096923828125 34.42261505126953
v -108.83792877197266 66.18096923828125 43.88371658325195
v -99.37682342529297 66.18096923828125 47.80263519287109
v -89.91571807861328 66.18096923828125 43.88371658325195
v -89.91571807861328 75.64206695556641 34.42261505126953
v -92.68681335449219 75.64206695556641 27.73260307312012
v -99.37682342529297 75.64206695556641 24.96150970458984
v -106.06683349609375 75.64206695556641 27.73260307312012
v -108.83792877197266 75.64206695556641 34.42261505126953
v -106.06683349609375 75.64206695556641 41.11262512207031
v -99.37682342529297 75.64206695556641 43.88371658325195
v -92.68681335449219 75.64206695556641 41.11262512207031
# 26 vertices

vn 0.86285626888275 -0.35740658640862 -0.35740673542023
vn 0.35740679502487 -0.35740667581558 -0.86285620927811
vn -0.35740679502487 -0.35740667581558 -0.86285620927811
vn -0.8628563284874 -0.35740649700165 -0.35740673542023
vn -0.86285626888275 -0.35740655660629 0.35740685462952
vn -0.35740673542023 -0.35740661621094 0.86285626888275
vn 0.3574067056179 -0.35740655660629 0.86285626888275
vn 0.86285626888275 -0.35740649700165 0.35740682482719
vn 0.86285614967346 0.35740691423416 -0.35740667581558
vn 0.3574067056179 0.35740700364113 -0.86285609006882
vn -0.35740673542023 0.35740700364113 -0.86285609006882
vn -0.86285614967346 0.35740694403648 -0.35740667581558
vn -0.86285614967346 0.35740685462952 0.35740679502487
vn -0.35740664601326 0.35740694403648 0.86285614967346
vn 0.35740664601326 0.35740697383881 0.86285614967346
vn 0.86285614967346 0.35740691423416 0.35740679502487
vn 0 -1 0.00000005715595
vn 0.38268312811852 -0.92387968301773 0.00000003017441
vn 0.27059787511826 -0.92387962341309 -0.27059787511826
vn 0.27059832215309 0.92387938499451 -0.27059832215309
vn 0.38268378376961 0.92387938499451 0.00000001508721
vn -0.00000000408257 1 0.00000005307341
vn 0 -0.92387968301773 -0.38268312811852
vn 0 0.92387938499451 -0.38268378376961
vn -0.27059787511826 -0.92387962341309 -0.27059787511826
vn -0.27059832215309 0.92387938499451 -0.27059832215309
vn -0.38268312811852 -0.92387968301773 0.00000003017441
vn -0.38268378376961 0.92387938499451 0.00000001508721
vn -0.27059781551361 -0.92387962341309 0.27059799432755
vn -0.27059826254845 0.92387932538986 0.2705984711647
vn 0 -0.92387956380844 0.38268327713013
vn 0 0.92387932538986 0.38268393278122
vn 0.27059781551361 -0.92387962341309 0.27059799432755
vn 0.27059829235077 0.92387932538986 0.2705984711647
# 34 normals

# 0 texture coordinate

o 球体.3
usemtl default
f 30/4/36 38/3/36 37/2/36 29/1/36
f 31/6/37 39/5/37 38/3/37 30/4/37
f 32/8/38 40/7/38 39/5/38 31/6/38
f 33/10/39 41/9/39 40/7/39 32/8/39
f 34/12/40 42/11/40 41/9/40 33/10/40
f 35/14/41 43/13/41 42/11/41 34/12/41
f 36/16/42 44/15/42 43/13/42 35/14/42
f 29/18/43 37/17/43 44/15/43 36/16/43
f 38/3/44 46/20/44 45/19/44 37/2/44
f 39/5/45 47/21/45 46/20/45 38/3/45
f 40/7/46 48/22/46 47/21/46 39/5/46
f 41/9/47 49/23/47 48/22/47 40/7/47
f 42/11/48 50/24/48 49/23/48 41/9/48
f 43/13/49 51/25/49 50/24/49 42/11/49
f 44/15/50 52/26/50 51/25/50 43/13/50
f 37/17/51 45/27/51 52/26/51 44/15/51
f 30/4/54 29/1/53 27/28/52
f 28/29/57 45/19/56 46/20/55
f 31/6/58 30/4/54 27/30/52
f 28/31/57 46/20/55 47/21/59
f 32/8/60 31/6/58 27/32/52
f 28/33/57 47/21/59 48/22/61
f 33/10/62 32/8/60 27/34/52
f 28/35/57 48/22/61 49/23/63
f 34/12/64 33/10/62 27/36/52
f 28/37/57 49/23/63 50/24/65
f 35/14/66 34/12/64 27/38/52
f 28/39/57 50/24/65 51/25/67
f 36/16/68 35/14/66 27/40/52
f 28/41/57 51/25/67 52/26/69
f 29/18/53 36/16/68 27/42/52
f 28/43/57 52/26/69 45/27/56

v -122.97966766357422 30.38083457946777 36.42423629760742
v -122.97966766357422 87.83322906494141 36.42423629760742
v -102.66717529296875 38.7945442199707 36.42423629760742
v -108.61656951904297 38.7945442199707 22.06113815307617
v -122.97966766357422 38.7945442199707 16.11174774169922
v -137.3427734375 38.7945442199707 22.06113815307617
v -143.29216003417969 38.7945442199707 36.42423629760742
v -137.3427734375 38.7945442199707 50.78733444213867
v -122.97966766357422 38.7945442199707 56.73672485351562
v -108.61656951904297 38.7945442199707 50.78733444213867
v -94.25347137451172 59.10703277587891 36.42423629760742
v -102.66717529296875 59.10703277587891 16.11174774169922
v -122.97966766357422 59.10703277587891 7.69803810119629
v -143.29216003417969 59.10703277587891 16.11174774169922
v -151.70587158203125 59.10703277587891 36.42423629760742
v -143.29216003417969 59.10703277587891 56.73672485351562
v -122.97966766357422 59.10703277587891 65.15043640136719
v -102.66717529296875 59.10703277587891 56.73672485351562
v -102.66717529296875 79.41952514648438 36.42423629760742
v -108.61656951904297 79.41952514648438 22.06113815307617
v -122.97966766357422 79.41952514648438 16.11174774169922
v -137.3427734375 79.41952514648438 22.06113815307617
v -143.29216003417969 79.41952514648438 36.42423629760742
v -137.3427734375 79.41952514648438 50.78733444213867
v -122.97966766357422 79.41952514648438 56.73672485351562
v -108.61656951904297 79.41952514648438 50.78733444213867
# 26 vertices

vn 0.35740673542023 -0.35740679502487 -0.86285620927811
vn -0.35740667581558 -0.35740673542023 -0.86285626888275
vn -0.86285620927811 -0.35740673542023 -0.3574067056179
vn -0.86285620927811 -0.35740673542023 0.35740673542023
vn -0.35740664601326 -0.35740676522255 0.86285620927811
vn 0.35740679502487 -0.35740685462952 0.86285614967346
vn 0.86285620927811 -0.35740667581558 0.35740676522255
vn 0.86285626888275 0.35740664601326 -0.35740679502487
vn 0.35740673542023 0.35740673542023 -0.86285620927811
vn -0.35740667581558 0.35740667581558 -0.86285626888275
vn -0.86285626888275 0.35740667581558 -0.35740673542023
vn -0.86285620927811 0.3574067056179 0.35740673542023
vn -0.3574067056179 0.3574067056179 0.86285626888275
vn 0.35740676522255 0.35740679502487 0.86285614967346
vn 0.86285620927811 0.35740673542023 0.35740679502487
vn 0.00000001837156 -1 0
vn 0.38268342614174 -0.92387956380844 0
vn 0.27059805393219 -0.9238795042038 -0.27059811353683
vn 0.27059787511826 0.92387962341309 -0.27059796452522
vn 0.38268321752548 0.92387962341309 -0.0000000075436
vn 0.00000002041284 1 0
vn 0.00000003771801 -0.9238795042038 -0.38268345594406
vn 0.00000003771801 0.92387962341309 -0.38268327713013
vn -0.27059802412987 -0.92387956380844 -0.27059802412987
vn -0.27059784531593 0.92387962341309 -0.27059787511826
vn -0.38268342614174 -0.92387956380844 0
vn -0.38268321752548 0.92387962341309 0.0000000075436
vn -0.27059802412987 -0.92387956380844 0.27059802412987
vn -0.27059787511826 0.92387962341309 0.27059790492058
vn 0.00000003771801 -0.9238795042038 0.38268345594406
vn 0.00000004526162 0.92387962341309 0.38268327713013
vn 0.27059805393219 -0.9238795042038 0.27059811353683
vn 0.27059787511826 0.92387962341309 0.27059796452522
# 33 normals

# 0 texture coordinate

o 球体.2
usemtl default
f 56/4/1 64/3/1 63/2/1 55/1/1
f 57/6/70 65/5/70 64/3/70 56/4/70
f 58/8/71 66/7/71 65/5/71 57/6/71
f 59/10/72 67/9/72 66/7/72 58/8/72
f 60/12/73 68/11/73 67/9/73 59/10/73
f 61/14/74 69/13/74 68/11/74 60/12/74
f 62/16/75 70/15/75 69/13/75 61/14/75
f 55/18/76 63/17/76 70/15/76 62/16/76
f 64/3/77 72/20/77 71/19/77 63/2/77
f 65/5/78 73/21/78 72/20/78 64/3/78
f 66/7/79 74/22/79 73/21/79 65/5/79
f 67/9/80 75/23/80 74/22/80 66/7/80
f 68/11/81 76/24/81 75/23/81 67/9/81
f 69/13/82 77/25/82 76/24/82 68/11/82
f 70/15/83 78/26/83 77/25/83 69/13/83
f 63/17/84 71/27/84 78/26/84 70/15/84
f 56/4/87 55/1/86 53/28/85
f 54/29/90 71/19/89 72/20/88
f 57/6/91 56/4/87 53/30/85
f 54/31/90 72/20/88 73/21/92
f 58/8/93 57/6/91 53/32/85
f 54/33/90 73/21/92 74/22/94
f 59/10/95 58/8/93 53/34/85
f 54/35/90 74/22/94 75/23/96
f 60/12/97 59/10/95 53/36/85
f 54/37/90 75/23/96 76/24/98
f 61/14/99 60/12/97 53/38/85
f 54/39/90 76/24/98 77/25/100
f 62/16/101 61/14/99 53/40/85
f 54/41/90 77/25/100 78/26/102
f 55/18/86 62/16/101 53/42/85
f 54/43/90 78/26/102 71/27/89

v -161.73777770996094 42.38422775268555 36.42423629760742
v -161.73777770996094 112.541259765625 36.42423629760742
v -136.93351745605469 52.65848922729492 36.42423629760742
v -144.19851684570312 52.65848922729492 18.88497924804688
v -161.73777770996094 52.65848922729492 11.61997985839844
v -179.27702331542969 52.65848922729492 18.88497924804688
v -186.54202270507812 52.65848922729492 36.42423629760742
v -179.27702331542969 52.65848922729492 53.96349334716797
v -161.73777770996094 52.65848922729492 61.22849273681641
v -144.19851684570312 52.65848922729492 53.96349334716797
v -126.65925598144531 77.46274566650391 36.42423629760742
v -136.93351745605469 77.46274566650391 11.61997985839844
v -161.73777770996094 77.46274566650391 1.34572088718414
v -186.54202270507812 77.46274566650391 11.61997985839844
v -196.8162841796875 77.46274566650391 36.42423629760742
v -186.54202270507812 77.46274566650391 61.22849273681641
v -161.73777770996094 77.46274566650391 71.50275421142578
v -136.93351745605469 77.46274566650391 61.22849273681641
v -136.93351745605469 102.26699829101562 36.42423629760742
v -144.19851684570312 102.26699829101562 18.88497924804688
v -161.73777770996094 102.26699829101562 11.61997985839844
v -179.27702331542969 102.26699829101562 18.88497924804688
v -186.54202270507812 102.26699829101562 36.42423629760742
v -179.27702331542969 102.26699829101562 53.96349334716797
v -161.73777770996094 102.26699829101562 61.22849273681641
v -144.19851684570312 102.26699829101562 53.96349334716797
# 26 vertices

vn 0.86285614967346 -0.35740679502487 -0.35740679502487
vn 0.3574067056179 -0.35740673542023 -0.86285620927811
vn -0.35740691423416 -0.35740673542023 -0.86285614967346
vn -0.86285614967346 -0.35740679502487 -0.35740679502487
vn -0.86285614967346 -0.35740679502487 0.35740679502487
vn -0.35740697383881 -0.35740679502487 0.86285609006882
vn 0.35740673542023 -0.35740679502487 0.86285620927811
vn 0.86285614967346 -0.35740679502487 0.35740679502487
vn 0.86285614967346 0.35740685462952 -0.35740679502487
vn 0.35740664601326 0.35740676522255 -0.86285620927811
vn -0.35740694403648 0.35740679502487 -0.86285609006882
vn -0.86285614967346 0.35740685462952 -0.35740679502487
vn -0.35740700364113 0.35740688443184 0.86285603046417
vn 0.35740673542023 0.35740685462952 0.86285614967346
vn 0.86285614967346 0.35740685462952 0.35740679502487
vn -0.00000009185779 -1 -0.00000000408257
vn 0.38268345594406 -0.9238795042038 0
vn 0.27059808373451 -0.9238795042038 -0.27059811353683
vn 0.27059808373451 0.9238795042038 -0.27059811353683
vn 0.38268345594406 0.9238795042038 0
vn -0.00000009389908 1 -0.00000000816514
vn -0.00000006789243 -0.9238795042038 -0.38268351554871
vn -0.00000006789243 0.9238795042038 -0.38268351554871
vn -0.2705982029438 -0.92387944459915 -0.27059811353683
vn -0.2705982029438 0.92387944459915 -0.27059811353683
vn -0.382683634758 -0.92387944459915 0
vn -0.382683634758 0.92387944459915 0
vn -0.2705982029438 -0.92387944459915 0.27059811353683
vn -0.2705982029438 0.92387944459915 0.27059811353683
vn -0.00000006789243 -0.9238795042038 0.38268351554871
vn -0.00000007543603 0.9238795042038 0.38268348574638
vn 0.27059808373451 -0.9238795042038 0.27059811353683
vn 0.27059805393219 0.9238795042038 0.27059808373451
# 33 normals

# 0 texture coordinate

o 球体.1
usemtl default
f 82/4/103 90/3/103 89/2/103 81/1/103
f 83/6/104 91/5/104 90/3/104 82/4/104
f 84/8/105 92/7/105 91/5/105 83/6/105
f 85/10/106 93/9/106 92/7/106 84/8/106
f 86/12/107 94/11/107 93/9/107 85/10/107
f 87/14/108 95/13/108 94/11/108 86/12/108
f 88/16/109 96/15/109 95/13/109 87/14/109
f 81/18/110 89/17/110 96/15/110 88/16/110
f 90/3/111 98/20/111 97/19/111 89/2/111
f 91/5/112 99/21/112 98/20/112 90/3/112
f 92/7/113 100/22/113 99/21/113 91/5/113
f 93/9/114 101/23/114 100/22/114 92/7/114
f 94/11/48 102/24/48 101/23/48 93/9/48
f 95/13/115 103/25/115 102/24/115 94/11/115
f 96/15/116 104/26/116 103/25/116 95/13/116
f 89/17/117 97/27/117 104/26/117 96/15/117
f 82/4/120 81/1/119 79/28/118
f 80/29/123 97/19/122 98/20/121
f 83/6/124 82/4/120 79/30/118
f 80/31/123 98/20/121 99/21/125
f 84/8/126 83/6/124 79/32/118
f 80/33/123 99/21/125 100/22/127
f 85/10/128 84/8/126 79/34/118
f 80/35/123 100/22/127 101/23/129
f 86/12/130 85/10/128 79/36/118
f 80/37/123 101/23/129 102/24/131
f 87/14/132 86/12/130 79/38/118
f 80/39/123 102/24/131 103/25/133
f 88/16/134 87/14/132 79/40/118
f 80/41/123 103/25/133 104/26/135
f 81/18/119 88/16/134 79/42/118
f 80/43/123 104/26/135 97/27/122

v -203.00032043457031 48.64994812011719 71.63253784179688
v -203.00032043457031 83.71198272705078 71.63253784179688
v -190.60401916503906 53.78466415405273 71.63253784179688
v -194.23481750488281 53.78466415405273 62.86702728271484
v -203.00032043457031 53.78466415405273 59.23623657226562
v -211.76582336425781 53.78466415405273 62.86702728271484
v -215.39662170410156 53.78466415405273 71.63253784179688
v -211.76582336425781 53.78466415405273 80.39804077148438
v -203.00032043457031 53.78466415405273 84.02883911132812
v -194.23481750488281 53.78466415405273 80.39804077148438
v -185.46929931640625 66.18096923828125 71.63253784179688
v -190.60401916503906 66.18096923828125 59.23623657226562
v -203.00032043457031 66.18096923828125 54.10152053833008
v -215.39662170410156 66.18096923828125 59.23623657226562
v -220.53134155273438 66.18096923828125 71.63253784179688
v -215.39662170410156 66.18096923828125 84.02883911132812
v -203.00032043457031 66.18096923828125 89.16355133056641
v -190.60401916503906 66.18096923828125 84.02883911132812
v -190.60401916503906 78.57726287841797 71.63253784179688
v -194.23481750488281 78.57726287841797 62.86702728271484
v -203.00032043457031 78.57726287841797 59.23623657226562
v -211.76582336425781 78.57726287841797 62.86702728271484
v -215.39662170410156 78.57726287841797 71.63253784179688
v -211.76582336425781 78.57726287841797 80.39804077148438
v -203.00032043457031 78.57726287841797 84.02883911132812
v -194.23481750488281 78.57726287841797 80.39804077148438
# 26 vertices

vn 0.86285603046417 -0.35740691423416 -0.35740703344345
vn 0.35740676522255 -0.35740664601326 -0.86285626888275
vn -0.35740676522255 -0.35740667581558 -0.86285626888275
vn -0.86285603046417 -0.35740691423416 -0.35740703344345
vn -0.86285591125488 -0.35740700364113 0.35740712285042
vn -0.35740697383881 -0.35740667581558 0.86285614967346
vn 0.35740694403648 -0.35740682482719 0.86285609006882
vn 0.86285597085953 -0.35740697383881 0.35740715265274
vn 0.86285591125488 0.35740715265274 -0.35740697383881
vn 0.3574067056179 0.35740691423416 -0.86285614967346
vn -0.35740673542023 0.35740694403648 -0.86285614967346
vn -0.86285591125488 0.35740718245506 -0.35740694403648
vn -0.86285585165024 0.35740727186203 0.3574070930481
vn -0.35740691423416 0.35740712285042 0.86285597085953
vn 0.35740691423416 0.35740697383881 0.86285603046417
vn 0.86285585165024 0.35740733146667 0.3574070930481
vn -0.00000000408257 -1 0.00000002449541
vn 0.38268342614174 -0.92387956380844 0.00000006789243
vn 0.27059805393219 -0.9238795042038 -0.27059817314148
vn 0.2705982029438 0.92387938499451 -0.27059835195541
vn 0.38268366456032 0.92387944459915 0.00000006789243
vn 0.00000000408257 1 0.00000001837156
vn 0 -0.9238795042038 -0.38268342614174
vn 0 0.92387944459915 -0.38268369436264
vn -0.27059805393219 -0.9238795042038 -0.27059817314148
vn -0.2705982029438 0.92387938499451 -0.27059835195541
vn -0.38268342614174 -0.92387956380844 0.00000006789243
vn -0.38268366456032 0.92387944459915 0.00000006789243
vn -0.27059817314148 -0.92387944459915 0.27059817314148
vn -0.27059835195541 0.92387932538986 0.27059835195541
vn 0 -0.9238795042038 0.38268345594406
vn 0 0.92387944459915 0.38268366456032
vn 0.27059817314148 -0.92387944459915 0.27059817314148
vn 0.27059835195541 0.92387932538986 0.27059835195541
# 34 normals

# 0 texture coordinate

o 球体
usemtl default
f 108/4/136 116/3/136 115/2/136 107/1/136
f 109/6/137 117/5/137 116/3/137 108/4/137
f 110/8/138 118/7/138 117/5/138 109/6/138
f 111/10/139 119/9/139 118/7/139 110/8/139
f 112/12/140 120/11/140 119/9/140 111/10/140
f 113/14/141 121/13/141 120/11/141 112/12/141
f 114/16/142 122/15/142 121/13/142 113/14/142
f 107/18/143 115/17/143 122/15/143 114/16/143
f 116/3/144 124/20/144 123/19/144 115/2/144
f 117/5/145 125/21/145 124/20/145 116/3/145
f 118/7/146 126/22/146 125/21/146 117/5/146
f 119/9/147 127/23/147 126/22/147 118/7/147
f 120/11/148 128/24/148 127/23/148 119/9/148
f 121/13/149 129/25/149 128/24/149 120/11/149
f 122/15/150 130/26/150 129/25/150 121/13/150
f 115/17/151 123/27/151 130/26/151 122/15/151
f 108/4/154 107/1/153 105/28/152
f 106/29/157 123/19/156 124/20/155
f 109/6/158 108/4/154 105/30/152
f 106/31/157 124/20/155 125/21/159
f 110/8/160 109/6/158 105/32/152
f 106/33/157 125/21/159 126/22/161
f 111/10/162 110/8/160 105/34/152
f 106/35/157 126/22/161 127/23/163
f 112/12/164 111/10/162 105/36/152
f 106/37/157 127/23/163 128/24/165
f 113/14/166 112/12/164 105/38/152
f 106/39/157 128/24/165 129/25/167
f 114/16/168 113/14/166 105/40/152
f 106/41/157 129/25/167 130/26/169
f 107/18/153 114/16/168 105/42/152
f 106/43/157 130/26/169 123/27/156

